<svg xmlns="http://www.w3.org/2000/svg" viewBox="0 0 670 670">
	<style>
		.tile {
			-webkit-animation: 9s ease-in-out both fade-in infinite;
			animation: 9s ease-in-out both fade-in infinite;
		}
		@-webkit-keyframes fade-in {
			0% {
				opacity: 1;
			}
			25% {
				opacity: 0;
			}
			50%{
				opacity: 1;
			}
			75% {
				opacity: 0;
			}
			10% {
				opacity: 1;
			}
		}
		@keyframes fade-in {
			0% {
				opacity: 1;
			}
			25% {
				opacity: 0;
			}
			50%{
				opacity: 1;
			}
			75% {
				opacity: 0;
			}
			10% {
				opacity: 1;
			}
		}
		
		.tile:nth-child(1) {
			-webkit-animation-delay: 0.2s;
			animation-delay: 0.2s;
		}
		.tile:nth-child(2) {
			-webkit-animation-delay: 0.4s;
			animation-delay: 0.4s;
		}
		.tile:nth-child(3) {
			-webkit-animation-delay: 0.6s;
			animation-delay: 0.6s;
		}
		.tile:nth-child(4) {
			-webkit-animation-delay: 0.8s;
			animation-delay: 0.8s;
		}
		.tile:nth-child(5) {
			-webkit-animation-delay: 1s;
			animation-delay: 1s;
		}
		.tile:nth-child(6) {
			-webkit-animation-delay: 1.2s;
			animation-delay: 1.2s;
		}
		.tile:nth-child(7) {
			-webkit-animation-delay: 1.4s;
			animation-delay: 1.4s;
		}
		.tile:nth-child(8) {
			-webkit-animation-delay: 1.6s;
			animation-delay: 1.6s;
		}
	</style>
	<g>
		<g class="tile">
			<path style="opacity:0.8;fill:#71C7B6;enable-background:new    ;" d="M207.8,296.2c0,0-208.1,167.4-203.1,177.2
				c4.9,9.8,218.9-100,218.9-100s133.9-72.8,145.9-90.8c12.1-18-2.9-56.7-31.5-52.6S207.8,296.2,207.8,296.2z"/>
		</g>
		<g class="tile">
			<path style="opacity:0.8;fill:#71C7B6;enable-background:new    ;" d="M315.4,321c-51.8-20-119.9-35.1-151.4-29.7
				c-49.5,8.4-34.1,44.3-12.3,56.1c11.1,6,41.6,14.9,72.8,25.5"/>
		</g>
		<g class="tile">
			<path style="opacity:0.8;fill:#946BAD;enable-background:new    ;" d="M142.2,340.2c16.8,18.2,198.2-19.9,227.3-57.5
				c28.1-36.4,25.8-174.6,5.1-220.3s-51.5-21.7-57.3,2.4S316,197.6,298,221.6c-16.2,21.6-119.4,39.1-138.4,54
				C123.9,303.5,125.4,322,142.2,340.2z"/>
		</g>
		<g class="tile">
			<path style="opacity:0.8;fill:#F16D76;enable-background:new    ;" d="M317.6,63.6c-7.5,22.9,75,181.7,118.8,195.8
				c43.7,14.1,179.9-45.7,214-82.5s0-55.9-24.5-51.9c-24.5,4-116.5,50.5-145.9,44.8c-29.4-5.7-70.6-74.6-85.4-93.8
				c-19.1-25-32.7-36.7-44.3-39C333.5,33.7,322.3,49.3,317.6,63.6z"/>
		</g>
		<g class="tile">
			<path style="opacity:0.8;fill:#F37D2A;enable-background:new    ;" d="M622,125.7c-25.9,5-150.1,140.6-149.4,186.5
				S573.4,468,619.2,488.5s52.9-17.9,41.3-39.8c-11.6-21.9-83.6-97.8-87.6-127.4c-4-29.7,46.6-87.2,60-107.4
				c20.3-30.6,31.3-49.1,31.8-62.7C665.5,126.3,638.7,122.4,622,125.7z"/>
		</g>
		<g class="tile">
			<path style="opacity:0.8;fill:#FFEA2D;enable-background:new    ;" d="M663.3,461c-12.9-28.2-181-109.5-224.7-95.3
				c-43.6,14.2-119,142.4-125.1,192.2s32.7,45.3,50.2,27.8s70.1-109.3,97.3-121.9c27.2-12.6,95.8,18.7,118.9,26.2
				C660.8,516,670.9,477.6,663.3,461z"/>
		</g>
		<g class="tile">
			<path style="opacity:0.8;fill:#71C7B6;enable-background:new    ;" d="M305.3,465c-0.4,22.8-1.1,50.9-0.1,62.2
				c3.2,38.1,7.3,58.2,17,66.1c13.2,10.8,33.2,0.4,40.9-7.1c16.6-16.3,36.9-125.9,29.3-190"/>
		</g>
		<g class="tile">
			<path style="opacity:0.8;fill:#71C7B6;enable-background:new    ;" d="M367,509c0,0-231.5,132.1-238.8,124.2
				c-7.3-7.8,172.9-164.9,172.9-164.9s116.6-96.9,137.7-101.7c21.1-4.9,51.6,21.9,37.3,46.6C461.7,437.8,367,509,367,509z"/>
		</g>
	</g>
</svg>